<svg width="62" height="62" viewBox="0 0 62 62" fill="none" xmlns="http://www.w3.org/2000/svg">
<rect x="40.7502" y="45.269" width="6.80513" height="6.25249" transform="rotate(-4.24972 40.7502 45.269)" fill="#DD291A"/>
<rect x="28.6367" y="42.2043" width="4.77631" height="11.2008" transform="rotate(0.253983 28.6367 42.2043)" fill="#DD291A"/>
<rect x="29.0496" y="49" width="3.80853" height="6.67135" transform="rotate(0.253983 29.0496 49)" fill="#DD291A"/>
<path d="M58.455 58.8253L55.7123 42.7679C55.4167 41.0378 54.1894 39.648 52.509 39.1411L45.1111 36.909C44.9579 35.1006 44.2165 33.3945 42.9825 32.0441C41.9955 30.9639 40.754 30.1774 39.3856 29.7434C39.6198 29.4835 39.8369 29.2245 40.0361 28.9712C41.7953 26.7337 42.7372 24.2688 42.977 22.5866H43.5477C45.032 22.5866 46.2397 21.3791 46.2397 19.8946V18.5146C46.2397 17.524 45.6824 16.6263 44.8443 16.1604V12.842C44.8443 12.3405 44.4378 11.934 43.9364 11.934C43.4349 11.934 43.0285 12.3404 43.0285 12.842V16.5673C42.675 16.6287 42.2531 16.7348 41.8215 16.9166C41.7773 16.9327 41.7343 16.9513 41.6936 16.9737C41.5961 17.0182 41.4985 17.065 41.4013 17.1178V9.80109C41.4013 7.77967 39.7568 6.13521 37.7354 6.13521H35.2294C34.365 6.13521 33.5206 6.43637 32.8515 6.98348L32.6055 7.18449C32.1538 7.55383 31.5837 7.75727 31.0002 7.75727C30.4166 7.75727 29.8464 7.55383 29.3947 7.18449L29.1489 6.98348C28.4797 6.4365 27.6354 6.13521 26.771 6.13521H24.2647C22.2433 6.13521 20.5988 7.77967 20.5988 9.80109V17.1178C20.5016 17.065 20.404 17.0182 20.3065 16.9737C20.2658 16.9513 20.223 16.9327 20.1788 16.9166C19.7472 16.7348 19.3252 16.6287 18.9717 16.5673V7.14756C18.9717 4.20764 21.3635 1.8158 24.3035 1.8158H37.6965C40.6366 1.8158 43.0283 4.20764 43.0283 7.14756V8.57477C43.0283 9.07622 43.4348 9.48273 43.9361 9.48273C44.4375 9.48273 44.8441 9.07634 44.8441 8.57477V7.14756C44.8441 3.20644 41.6377 0 37.6965 0H24.3035C20.3622 0 17.1559 3.20644 17.1559 7.14756V16.1606C16.3178 16.6264 15.7605 17.524 15.7605 18.5147V19.8947C15.7605 21.3792 16.9682 22.5868 18.4526 22.5868H19.0233C19.2629 24.2689 20.2049 26.7339 21.9642 28.9713C22.1631 29.2244 22.3801 29.4832 22.6141 29.7428C19.4681 30.7421 17.1738 33.5706 16.8891 36.909L9.49103 39.1411C7.81062 39.648 6.58321 41.0378 6.28774 42.7679L5.17392 49.2887C5.08952 49.783 5.4218 50.252 5.91598 50.3364C6.41005 50.421 6.87928 50.0886 6.96381 49.5943L8.07763 43.0735C8.25636 42.0268 8.99891 41.1862 10.0155 40.8796L16.8579 38.815V40.611C15.2895 40.8997 13.9549 41.977 13.4053 43.4698C13.2593 43.866 13.1687 44.2808 13.1357 44.7027L12.4744 53.1908C12.4245 53.8302 12.6458 54.4669 13.0811 54.9373C13.5164 55.4079 14.1339 55.6779 14.7751 55.6779H15.9071C16.4085 55.6779 16.815 55.2715 16.815 54.77C16.815 54.2684 16.4085 53.8621 15.9071 53.8621H14.7751C14.6384 53.8621 14.5069 53.8047 14.414 53.7042C14.3212 53.604 14.2741 53.4683 14.2848 53.3321L14.9461 44.8439C14.966 44.5883 15.0209 44.337 15.1093 44.0971C15.4917 43.0588 16.5244 42.3556 17.6793 42.3475L17.8288 42.3464C17.8358 42.3462 17.8427 42.3462 17.8497 42.3462C18.9721 42.3462 19.9656 42.9827 20.3847 43.9722C20.5023 44.2496 20.5738 44.5429 20.5973 44.8439L21.2588 53.3322C21.2693 53.4683 21.2222 53.604 21.1295 53.7043C21.0367 53.8046 20.9051 53.8621 20.7684 53.8621H19.6364C19.1349 53.8621 18.7284 54.2685 18.7284 54.77C18.7284 55.2714 19.1349 55.6779 19.6364 55.6779H20.7684C21.4096 55.6779 22.0271 55.408 22.4624 54.9373C22.8978 54.4666 23.119 53.83 23.0692 53.1909L22.4076 44.7027C22.3689 44.206 22.2508 43.7217 22.0567 43.2636C21.4586 41.8521 20.1797 40.8706 18.6736 40.605V38.2672L21.7946 37.3255C22.0786 37.9235 22.6413 39.216 23.756 42.002C24.8794 44.813 26.2757 48.4162 27.6149 51.9189C27.6245 51.9484 27.6355 51.9771 27.6478 52.0052C28.5415 54.3436 29.4084 56.634 30.1499 58.6097C30.2828 58.9641 30.6215 59.1987 30.9999 59.1987C31.3784 59.1987 31.7171 58.9641 31.85 58.6097C32.5914 56.634 33.4583 54.3436 34.3521 52.0052C34.3645 51.9771 34.3754 51.9482 34.385 51.9189C35.7232 48.4182 37.1188 44.8174 38.2417 42.0072C39.3578 39.2175 39.921 37.924 40.2051 37.3255L43.3262 38.2672V43.6298C41.1637 44.0499 39.5257 45.9571 39.5257 48.2407C39.5257 50.831 41.6331 52.9386 44.2235 52.9386C46.8139 52.9386 48.9213 50.8312 48.9213 48.2407C48.9213 45.9646 47.2941 44.062 45.142 43.6337V38.8151L51.9845 40.8797C53.0011 41.1863 53.7435 42.0269 53.9224 43.0737L56.6652 59.1311C56.7107 59.3973 56.6399 59.6577 56.4656 59.8641C56.2915 60.0705 56.0467 60.1843 55.7766 60.1843H6.22332C5.95316 60.1843 5.70855 60.0706 5.5343 59.8641C5.36016 59.6577 5.2892 59.3975 5.33473 59.1311L6.23991 53.8317C6.32431 53.3374 5.99203 52.8684 5.49785 52.784C5.00378 52.6993 4.53455 53.0319 4.45002 53.5261L3.54485 58.8254C3.40983 59.6164 3.62913 60.4218 4.14644 61.0351C4.664 61.6483 5.42095 62 6.22332 62H55.7766C56.5789 62 57.336 61.6483 57.8535 61.035C58.3708 60.4217 58.5901 59.6163 58.455 58.8253ZM43.0392 18.417C43.523 18.2964 43.9113 18.2986 43.9157 18.2987C44.0721 18.3008 44.2242 18.2642 44.3594 18.1934C44.3998 18.294 44.4237 18.4021 44.4237 18.5147V19.8947C44.4237 20.3779 44.0306 20.771 43.5474 20.771H43.0392V18.417ZM18.9607 20.771H18.4525C17.9693 20.771 17.5762 20.3779 17.5762 19.8947V18.5147C17.5762 18.4021 17.6002 18.294 17.6405 18.1935C17.7755 18.2643 17.9276 18.3009 18.0842 18.2987C18.0911 18.2999 18.4784 18.2978 18.9607 18.4175V20.771ZM20.7765 21.789V19.4037C21.0516 19.4862 21.3525 19.4749 21.6303 19.359C22.1068 19.1602 22.4146 18.6984 22.4146 18.1825V9.80109C22.4146 8.78099 23.2446 7.95102 24.2647 7.95102H26.7707C27.2173 7.95102 27.6536 8.10662 27.9994 8.38925L28.2452 8.59027C29.0203 9.22407 29.9986 9.57295 30.9999 9.57295C32.0013 9.57295 32.9796 9.22395 33.7547 8.59027L34.0005 8.38925C34.3461 8.10662 34.7825 7.95102 35.2291 7.95102H37.7352C38.7553 7.95102 39.5853 8.78099 39.5853 9.80109V18.1826C39.5853 18.6985 39.8931 19.1603 40.3696 19.3591C40.5287 19.4255 40.6953 19.4577 40.8605 19.4577C40.9836 19.4577 41.1058 19.4397 41.2234 19.4045V21.789C41.2234 23.1146 40.307 25.6888 38.6085 27.8489C38.0459 28.5644 37.3227 29.3331 36.4323 30.005C36.4041 30.0239 36.3771 30.0443 36.3513 30.0661C34.9719 31.086 33.1983 31.8673 30.9999 31.8673C28.8016 31.8673 27.028 31.086 25.6485 30.066C25.6227 30.0443 25.5958 30.0239 25.5677 30.0051C24.6773 29.3331 23.9541 28.5644 23.3914 27.8489C21.693 25.6889 20.7765 23.1146 20.7765 21.789ZM36.9481 36.4577L30.9999 40.9035L25.0518 36.4577C25.6417 35.708 25.9721 34.7457 25.9721 33.8869V32.4233C27.3709 33.1756 29.0399 33.6832 30.9999 33.6832C32.96 33.6832 34.6291 33.1756 36.0278 32.4233V33.8869C36.0278 34.7457 36.3582 35.708 36.9481 36.4577ZM23.5366 35.4443C23.0517 35.2596 22.5142 35.2293 22.0057 35.3672C21.9834 35.3725 21.9616 35.3784 21.9404 35.3847L18.8037 36.3312C19.3343 33.7225 21.4524 31.6463 24.1563 31.2441V33.8869C24.1563 34.4565 23.902 35.0454 23.5366 35.4443ZM26.0007 42.7327C25.999 42.7284 25.9973 42.7242 25.9957 42.7201C25.9497 42.6037 25.9043 42.4889 25.8593 42.3754C25.8512 42.3548 25.843 42.3344 25.8349 42.314C25.7909 42.203 25.7471 42.0928 25.704 41.9844C25.701 41.9768 25.698 41.9693 25.695 41.9615C25.5604 41.6233 25.4307 41.2989 25.306 40.9881C25.2969 40.9655 25.2878 40.9426 25.2788 40.9202C25.2429 40.8311 25.2077 40.7433 25.1727 40.6566C25.1598 40.6248 25.1471 40.5933 25.1344 40.5618C25.1005 40.4778 25.0668 40.3942 25.0337 40.3125C25.0237 40.288 25.014 40.2643 25.0042 40.2399C24.944 40.0915 24.8852 39.9468 24.8278 39.8057C24.8123 39.7675 24.7964 39.7287 24.7811 39.691C24.7585 39.636 24.7366 39.5825 24.7146 39.5286C24.6908 39.4705 24.6671 39.4129 24.6439 39.3562C24.6351 39.335 24.6261 39.3126 24.6173 39.2915C24.6103 39.2746 24.6039 39.259 24.597 39.2421C24.4921 38.9873 24.3925 38.7472 24.2979 38.5214C24.2972 38.5196 24.2963 38.5177 24.2956 38.5159C24.2452 38.3957 24.1959 38.2782 24.1486 38.1663C24.124 38.1083 24.0998 38.0513 24.076 37.9953L29.1917 41.8188L27.0541 42.7268C27.0504 42.7284 27.0465 42.73 27.0427 42.7317L26.1503 43.1108C26.0996 42.9828 26.0501 42.8574 26.0007 42.7327ZM28.1671 48.2918C27.9877 47.8265 27.8071 47.3584 27.626 46.8909C27.3429 46.1596 27.0725 45.4643 26.8137 44.8019L27.1526 44.6579L28.5369 46.2671L28.1671 48.2918ZM31.0175 55.671C30.9915 55.617 30.9605 55.566 30.9246 55.5186C30.5144 54.4342 29.9937 53.0621 29.4174 51.5524L30.265 46.9115H31.7349L32.5825 51.5524C31.9786 53.134 31.4362 54.5641 31.0175 55.671ZM32.0754 45.0958H29.9245L28.9067 43.9127L30.9999 43.0235L33.0932 43.9127L32.0754 45.0958ZM34.3739 46.8909C34.1928 47.3584 34.0122 47.8265 33.8328 48.2918L33.463 46.267L34.8473 44.6578L35.1862 44.8018C34.9274 45.4642 34.657 46.1596 34.3739 46.8909ZM37.8514 38.1663C37.8065 38.2724 37.7598 38.3837 37.7122 38.4973C37.706 38.5121 37.6997 38.5269 37.6935 38.5418C37.6464 38.6545 37.5985 38.7695 37.5488 38.8893C37.5455 38.8971 37.5422 38.9055 37.5389 38.9135C37.496 39.0168 37.4521 39.1233 37.4074 39.232C37.399 39.2523 37.3912 39.2711 37.3828 39.2915C37.3729 39.3159 37.3622 39.3417 37.3522 39.3662C37.3323 39.4147 37.3121 39.4641 37.2917 39.5135C37.2668 39.5744 37.242 39.6351 37.2164 39.6974C37.2083 39.7173 37.1999 39.738 37.1917 39.758C37.1285 39.9129 37.0636 40.0725 36.9972 40.2364C36.9868 40.2621 36.9765 40.2873 36.9661 40.3133C36.9333 40.3943 36.8999 40.477 36.8663 40.5602C36.8533 40.5928 36.8401 40.6253 36.8269 40.6582C36.7922 40.744 36.7572 40.831 36.7219 40.9192C36.7119 40.9437 36.7019 40.9689 36.692 40.9936C36.5688 41.3002 36.4411 41.62 36.3085 41.9533C36.3041 41.9643 36.2997 41.9751 36.2954 41.9862C36.2525 42.0939 36.2092 42.2034 36.1653 42.3137C36.1572 42.3343 36.149 42.3548 36.1407 42.3755C36.0954 42.4896 36.0498 42.6049 36.0035 42.722C36.0027 42.7242 36.0018 42.7264 36.001 42.7284C35.9511 42.8546 35.901 42.9815 35.8499 43.1111L34.9566 42.7316C34.9534 42.7302 34.9503 42.7289 34.9472 42.7276L32.8085 41.819L37.9241 37.9956C37.9001 38.0513 37.8759 38.1082 37.8514 38.1663ZM40.0595 35.3848C40.0593 35.3848 40.0591 35.3847 40.059 35.3847C40.0582 35.3844 40.0574 35.3843 40.0567 35.384C39.5299 35.2259 38.968 35.2521 38.4634 35.4443C38.0979 35.0454 37.8437 34.4565 37.8437 33.8869V31.2428C40.5645 31.6439 42.6763 33.7006 43.1999 36.3322L40.0595 35.3848ZM47.1055 48.2407C47.1055 49.83 45.8126 51.1228 44.2235 51.1228C42.6344 51.1228 41.3415 49.83 41.3415 48.2407C41.3415 46.6515 42.6344 45.3587 44.2235 45.3587C45.8126 45.3587 47.1055 46.6515 47.1055 48.2407Z" fill="black"/>
</svg>
