<svg width="61" height="61" viewBox="0 0 61 61" fill="none" xmlns="http://www.w3.org/2000/svg">
<rect x="24" y="9" width="13" height="5" fill="#DD291A"/>
<rect x="28" y="18" width="13" height="5" transform="rotate(-90 28 18)" fill="#DD291A"/>
<path d="M58.2002 55.4004H50.0986V19.019C50.0986 18.5254 49.6986 18.1255 49.2051 18.1255C48.7116 18.1255 48.3115 18.5254 48.3115 19.019V21.0759H12.6885V12.2715H23.0537V13.3849C23.0537 14.1403 23.6684 14.755 24.4238 14.755H27.2236V17.5548C27.2236 18.3102 27.8383 18.9249 28.5938 18.9249H32.4062C33.1617 18.9249 33.7764 18.3102 33.7764 17.5548V14.755H36.5762C37.3316 14.755 37.9463 14.1403 37.9463 13.3849V12.2715H48.3115V15.1984C48.3115 15.692 48.7116 16.092 49.2051 16.092C49.6986 16.092 50.0986 15.692 50.0986 15.1984V11.3779C50.0986 10.8843 49.6986 10.4844 49.2051 10.4844H42.8311V0.893555C42.8311 0.399955 42.431 0 41.9375 0H26.5389C26.0455 0 25.6454 0.399955 25.6454 0.893555C25.6454 1.38715 26.0455 1.78711 26.5389 1.78711H41.0439V10.4844H37.9463V9.57235C37.9463 8.81688 37.3316 8.20224 36.5762 8.20224H33.7764V5.40243C33.7764 4.64696 33.1617 4.03231 32.4062 4.03231H28.5938C27.8383 4.03231 27.2236 4.64696 27.2236 5.40243V8.20224H24.4238C23.6684 8.20224 23.0537 8.81688 23.0537 9.57235V10.4844H19.9561V1.78711H22.8595C23.353 1.78711 23.7531 1.38715 23.7531 0.893555C23.7531 0.399955 23.353 0 22.8595 0H19.0625C18.569 0 18.1689 0.399955 18.1689 0.893555V10.4844H11.7949C11.3014 10.4844 10.9014 10.8843 10.9014 11.3779V55.4004H2.7998C1.25598 55.4004 0 56.6564 0 58.2002C0 59.744 1.25598 61 2.7998 61H11.3777C11.8712 61 12.2712 60.6 12.2712 60.1064C12.2712 59.6128 11.8712 59.2129 11.3777 59.2129H2.7998C2.24139 59.2129 1.78711 58.7586 1.78711 58.2002C1.78711 57.6418 2.24139 57.1875 2.7998 57.1875H58.2002C58.7586 57.1875 59.2129 57.6418 59.2129 58.2002C59.2129 58.7586 58.7586 59.2129 58.2002 59.2129H15.2788C14.7854 59.2129 14.3853 59.6128 14.3853 60.1064C14.3853 60.6 14.7854 61 15.2788 61H58.2002C59.744 61 61 59.744 61 58.2002C61 56.6564 59.744 55.4004 58.2002 55.4004ZM24.8408 9.98935H27.6406C28.3961 9.98935 29.0107 9.3747 29.0107 8.61923V5.81942H31.9893V8.61923C31.9893 9.3747 32.6039 9.98935 33.3594 9.98935H36.1592V12.9679H33.3594C32.6039 12.9679 31.9893 13.5825 31.9893 14.338V17.1378H29.0107V14.338C29.0107 13.5825 28.3961 12.9679 27.6406 12.9679H24.8408V9.98935ZM48.2943 22.8628V24.65H12.6885V22.8628H48.2943ZM20.5518 55.4004V50.0391H22.8154V55.4004H20.5518ZM36.3975 50.0391V55.4004H24.6025V50.0391H36.3975ZM38.1846 55.4004V50.0391H40.4482V55.4004H38.1846ZM42.2354 55.4004V49.1455C42.2354 48.6519 41.8353 48.252 41.3418 48.252H19.6582C19.1647 48.252 18.7646 48.6519 18.7646 49.1455V55.4004H12.6885V26.4371H48.3115V55.4004H42.2354Z" fill="black"/>
<path d="M22.6367 27.9385H16.2031C15.7096 27.9385 15.3096 28.3384 15.3096 28.832V34.7891C15.3096 35.2827 15.7096 35.6826 16.2031 35.6826H22.6367C23.1302 35.6826 23.5303 35.2827 23.5303 34.7891V28.832C23.5303 28.3384 23.1302 27.9385 22.6367 27.9385ZM21.7432 33.8955H17.0967V29.7256H21.7432V33.8955Z" fill="black"/>
<path d="M44.7969 27.9385H38.3633C37.8698 27.9385 37.4697 28.3384 37.4697 28.832V34.7891C37.4697 35.2827 37.8698 35.6826 38.3633 35.6826H44.7969C45.2904 35.6826 45.6904 35.2827 45.6904 34.7891V28.832C45.6904 28.3384 45.2904 27.9385 44.7969 27.9385ZM43.9033 33.8955H39.2568V29.7256H43.9033V33.8955Z" fill="black"/>
<path d="M33.7168 27.9385H27.2832C26.7897 27.9385 26.3896 28.3384 26.3896 28.832V34.7891C26.3896 35.2827 26.7897 35.6826 27.2832 35.6826H33.7168C34.2103 35.6826 34.6104 35.2827 34.6104 34.7891V28.832C34.6104 28.3384 34.2103 27.9385 33.7168 27.9385ZM32.8232 33.8955H28.1768V29.7256H32.8232V33.8955Z" fill="black"/>
<path d="M22.6367 38.3037H16.2031C15.7096 38.3037 15.3096 38.7037 15.3096 39.1973V45.1543C15.3096 45.6479 15.7096 46.0479 16.2031 46.0479H22.6367C23.1302 46.0479 23.5303 45.6479 23.5303 45.1543V39.1973C23.5303 38.7037 23.1302 38.3037 22.6367 38.3037ZM21.7432 44.2607H17.0967V40.0908H21.7432V44.2607Z" fill="black"/>
<path d="M44.7969 38.3037H38.3633C37.8698 38.3037 37.4697 38.7037 37.4697 39.1973V45.1543C37.4697 45.6479 37.8698 46.0479 38.3633 46.0479H44.7969C45.2904 46.0479 45.6904 45.6479 45.6904 45.1543V39.1973C45.6904 38.7037 45.2904 38.3037 44.7969 38.3037ZM43.9033 44.2607H39.2568V40.0908H43.9033V44.2607Z" fill="black"/>
<path d="M33.7168 38.3037H27.2832C26.7897 38.3037 26.3896 38.7037 26.3896 39.1973V45.1543C26.3896 45.6479 26.7897 46.0479 27.2832 46.0479H33.7168C34.2103 46.0479 34.6104 45.6479 34.6104 45.1543V39.1973C34.6104 38.7037 34.2103 38.3037 33.7168 38.3037ZM32.8232 44.2607H28.1768V40.0908H32.8232V44.2607Z" fill="black"/>
</svg>
