<svg width="62" height="62" viewBox="0 0 62 62" fill="none" xmlns="http://www.w3.org/2000/svg">
<g clip-path="url(#clip0_25:62)">
<rect x="12" y="40" width="10" height="4" fill="#DD291A"/>
<rect x="13" y="45" width="8" height="4" fill="#DD291A"/>
<rect x="15" y="50" width="4" height="11" fill="#DD291A"/>
<path d="M32.9059 48.8815C32.9059 49.3832 33.3125 49.7898 33.8141 49.7898C34.3157 49.7898 34.7223 49.3832 34.7223 48.8815V8.0686C34.7223 3.61961 31.1027 0 26.6537 0H24.053C19.604 0 15.9844 3.61961 15.9844 8.0686V9.08203H13.2598C12.7641 9.08203 12.3599 9.47946 12.3517 9.9751L12.2604 15.4563C12.252 15.9579 12.6518 16.3711 13.1533 16.3795C13.6571 16.3931 14.0682 15.9881 14.0765 15.4866L14.153 10.8984H19.6322L20.0863 38.1445H17.8008V16.7715C17.8008 16.2698 17.3941 15.8633 16.8926 15.8633C16.391 15.8633 15.9844 16.2698 15.9844 16.7715V38.1445H13.6989L14.0144 19.2126C14.0228 18.711 13.623 18.2978 13.1215 18.2894C12.6175 18.2768 12.2066 18.6808 12.1983 19.1823L11.882 38.158C10.9887 38.2631 10.293 39.0237 10.293 39.9446V44.1387C10.293 44.9065 10.9177 45.5312 11.6855 45.5312H12.3516V48.498C12.3516 49.4718 13.0969 50.2741 14.0469 50.3658V60.0058C14.0469 61.1054 14.9414 62 16.041 62H17.7441C18.8438 62 19.7383 61.1054 19.7383 60.0058V50.3658C20.6883 50.2741 21.4336 49.4716 21.4336 48.498V45.5312H22.0996C22.8675 45.5312 23.4922 44.9065 23.4922 44.1387V39.9446C23.4922 39.0235 22.7965 38.263 21.9032 38.158L21.4335 9.9751C21.4252 9.47946 21.021 9.08203 20.5254 9.08203H17.8008V8.0686C17.8008 4.62106 20.6056 1.81641 24.053 1.81641H26.6537C30.1011 1.81641 32.9059 4.62106 32.9059 8.0686V48.8815ZM17.9219 60.0058C17.9219 60.1039 17.8422 60.1836 17.7441 60.1836H16.041C15.943 60.1836 15.8633 60.1039 15.8633 60.0058V50.375H17.9219V60.0058ZM19.6172 48.498C19.6172 48.5313 19.5901 48.5586 19.5566 48.5586H14.2285C14.1951 48.5586 14.168 48.5313 14.168 48.498V45.5312H19.6172V48.498ZM21.6758 43.7148H12.1094V39.9609H21.6758V43.7148Z" fill="black"/>
<path d="M51.3331 37.8462C51.2653 36.4595 50.3181 35.3182 49.0431 34.9445V25.2735C50.1001 24.8986 50.8595 23.889 50.8595 22.7051V16.7715C50.8595 16.7672 50.8589 16.7631 50.8589 16.7589C50.8589 16.7549 50.8592 16.7509 50.8591 16.7469L50.6666 9.6169C50.653 9.11533 50.2358 8.72105 49.7342 8.73352C49.2327 8.74697 48.8373 9.1645 48.8509 9.66582L49.0183 15.8633H47.2515L47.631 1.81641H48.6387L48.7463 5.79579C48.7597 6.29736 49.1747 6.6914 49.6787 6.67917C50.1801 6.66573 50.5755 6.2482 50.562 5.74687L50.4306 0.883742C50.4174 0.391738 50.0149 0 49.5227 0H46.7469C46.2549 0 45.8523 0.391738 45.8391 0.883742L45.4105 16.747C45.4104 16.751 45.4109 16.7549 45.4107 16.759C45.4107 16.7633 45.4101 16.7674 45.4101 16.7716V22.7052C45.4101 23.8891 46.1695 24.8987 47.2265 25.2736V34.9446C45.9516 35.3183 45.0042 36.4596 44.9365 37.8463L44.5639 45.4695C44.5471 45.815 44.6744 46.1567 44.9131 46.4074C45.1525 46.6586 45.489 46.8029 45.8364 46.8029H47.2267V53.9315C47.2267 57.3791 44.4219 60.1837 40.9745 60.1837C37.5271 60.1837 34.7224 57.3791 34.7224 53.9315V52.8311C34.7224 52.3295 34.3158 51.9229 33.8142 51.9229C33.3126 51.9229 32.906 52.3295 32.906 52.8311V53.9315C32.906 58.3805 36.5255 62.0001 40.9745 62.0001C45.4235 62.0001 49.0431 58.3804 49.0431 53.9314V46.8027H50.4331C50.7805 46.8027 51.1171 46.6586 51.3565 46.4072C51.5951 46.1566 51.7224 45.8147 51.7056 45.4692L51.3331 37.8462ZM49.0431 17.6797V22.7051C49.0431 23.2059 48.6357 23.6133 48.1349 23.6133C47.634 23.6133 47.2267 23.2059 47.2267 22.7051V17.6797H49.0431ZM46.4063 44.9863L46.7509 37.9349C46.7866 37.2038 47.3945 36.6309 48.1349 36.6309C48.8752 36.6309 49.4831 37.2036 49.5189 37.9349L49.8635 44.9863H46.4063Z" fill="black"/>
</g>
<defs>
<clipPath id="clip0_25:62">
<rect width="62" height="62" fill="white"/>
</clipPath>
</defs>
</svg>
