<svg width="62" height="62" viewBox="0 0 62 62" fill="none" xmlns="http://www.w3.org/2000/svg">
<rect x="11" y="27" width="8" height="21" fill="#DD291A"/>
<rect x="27" y="27" width="8" height="21" fill="#DD291A"/>
<rect x="43" y="27" width="8" height="21" fill="#DD291A"/>
<path d="M59.6387 56.576V26.9543C59.6387 26.4527 59.2322 26.0461 58.7305 26.0461C58.2288 26.0461 57.8223 26.4527 57.8223 26.9543V56.5508H56.0059V20.5859H57.8223V23.1442C57.8223 23.6457 58.2288 24.0524 58.7305 24.0524C59.2322 24.0524 59.6387 23.6457 59.6387 23.1442V16.0449C59.6387 15.5434 59.2322 15.1367 58.7305 15.1367H52.7375V12.9224C53.7293 12.7461 54.4854 11.8795 54.4854 10.8379V9.62695C54.4854 8.76295 53.9649 8.01919 53.2215 7.6897V3.08789C53.2215 1.38519 51.8364 0 50.1337 0H44.3212C42.6185 0 41.2333 1.38519 41.2333 3.08789V7.63605C40.4181 7.9314 39.8331 8.71112 39.8331 9.62695V10.8379C39.8331 11.9271 40.6594 12.8264 41.718 12.9433V15.1367H36.5776V12.9225C37.5697 12.7466 38.3262 11.8798 38.3262 10.8379V9.62695C38.3262 8.76295 37.8057 8.01931 37.0624 7.68982V3.08789C37.0624 1.38519 35.6772 0 33.9745 0H28.162C26.4593 0 25.0742 1.38519 25.0742 3.08789V7.63605C24.259 7.9314 23.6738 8.71112 23.6738 9.62695V10.8379C23.6738 11.9269 24.4998 12.8259 25.558 12.9432V15.1367H20.4188V12.9224C21.4107 12.7462 22.1671 11.8797 22.1671 10.8379V9.62695C22.1671 8.76295 21.6466 8.01931 20.9033 7.68982V3.08789C20.9033 1.38519 19.5181 0 17.8154 0H12.0029C10.3002 0 8.91504 1.38519 8.91504 3.08789V7.63593C8.09984 7.93128 7.51471 8.711 7.51471 9.62695V10.8379C7.51471 11.927 8.34094 12.8261 9.3993 12.9433V15.1367H3.26953C2.76796 15.1367 2.36133 15.5434 2.36133 16.0449V50.3142C2.36133 50.8158 2.76796 51.2224 3.26953 51.2224C3.7711 51.2224 4.17773 50.8158 4.17773 50.3142V20.5859H5.99414V56.5508H4.17773V54.2568C4.17773 53.7552 3.7711 53.3486 3.26953 53.3486C2.76796 53.3486 2.36133 53.7552 2.36133 54.2568V56.5761C1.03002 56.7553 0 57.8981 0 59.2777V60.7285C0 61.4296 0.570352 62 1.27148 62H46.5289C47.0306 62 47.4371 61.5934 47.4371 61.0918C47.4371 60.5902 47.0306 60.1836 46.5289 60.1836H1.81641V59.2777C1.81641 58.7756 2.22486 58.3672 2.72691 58.3672H59.273C59.775 58.3672 60.1836 58.7756 60.1836 59.2777V60.1836H50.4039C49.9023 60.1836 49.4957 60.5902 49.4957 61.0918C49.4957 61.5934 49.9023 62 50.4039 62H60.7285C61.4296 62 62 61.4296 62 60.7285V59.2777C62 57.8981 60.97 56.7553 59.6387 56.576ZM43.0497 3.08789C43.0497 2.38676 43.62 1.81641 44.3212 1.81641H50.1337C50.8348 1.81641 51.4051 2.38676 51.4051 3.08789V7.50781H43.0497V3.08789ZM41.6493 9.62695C41.6493 9.46009 41.7851 9.32422 41.9521 9.32422H52.3661C52.5331 9.32422 52.6689 9.46009 52.6689 9.62695V10.8379C52.6689 11.0048 52.5331 11.1406 52.3661 11.1406H41.9521C41.7851 11.1406 41.6493 11.0048 41.6493 10.8379V9.62695ZM43.5344 12.957H50.9211V15.1367H43.5344V12.957ZM26.8906 3.08789C26.8906 2.38676 27.4609 1.81641 28.162 1.81641H33.9745C34.6757 1.81641 35.246 2.38676 35.246 3.08789V7.50781H26.8906V3.08789ZM25.4902 9.62695C25.4902 9.46009 25.6261 9.32422 25.793 9.32422H36.207C36.374 9.32422 36.5098 9.46009 36.5098 9.62695V10.8379C36.5098 11.0048 36.374 11.1406 36.207 11.1406H25.793C25.6261 11.1406 25.4902 11.0048 25.4902 10.8379V9.62695ZM27.3745 12.957H34.7612V15.1367H27.3745V12.957ZM10.7314 3.08789C10.7314 2.38676 11.3018 1.81641 12.0029 1.81641H17.8154C18.5166 1.81641 19.0869 2.38676 19.0869 3.08789V7.50781H10.7314V3.08789ZM9.33112 9.62695C9.33112 9.46009 9.46699 9.32422 9.63386 9.32422H20.0479C20.2148 9.32422 20.3507 9.46009 20.3507 9.62695V10.8379C20.3507 11.0048 20.2148 11.1406 20.0479 11.1406H9.63386C9.46699 11.1406 9.33112 11.0048 9.33112 10.8379V9.62695ZM11.2157 12.957H18.6024V15.1367H11.2157V12.957ZM4.17773 18.7695V16.9531H57.8223V18.7695H4.17773ZM43.5344 27.8625H50.9211V44.0176C50.9211 46.0541 49.2642 47.7109 47.2278 47.7109C45.1913 47.7109 43.5344 46.0541 43.5344 44.0176V27.8625ZM50.9211 26.0461H43.5344V20.5859H50.9211V26.0461ZM27.3745 27.8625H34.7612V44.0176C34.7612 46.0541 33.1044 47.7109 31.0678 47.7109C29.0313 47.7109 27.3745 46.0541 27.3745 44.0176V27.8625ZM34.7612 26.0461H27.3745V20.5859H34.7612V26.0461ZM11.2157 27.8625H18.6024V44.0176C18.6024 46.0541 16.9456 47.7109 14.9091 47.7109C12.8725 47.7109 11.2157 46.0541 11.2157 44.0176V27.8625ZM18.6024 26.0461H11.2157V20.5859H18.6024V26.0461ZM7.81055 20.5859H9.3993V44.0176C9.3993 47.0557 11.8709 49.5273 14.9091 49.5273C17.9472 49.5273 20.4188 47.0557 20.4188 44.0176V20.5859H25.558V44.0176C25.558 47.0557 28.0297 49.5273 31.0678 49.5273C34.1058 49.5273 36.5776 47.0557 36.5776 44.0176V20.5859H41.718V44.0176C41.718 47.0557 44.1897 49.5273 47.2278 49.5273C50.2659 49.5273 52.7375 47.0557 52.7375 44.0176V20.5859H54.1895V56.5508H7.81055V20.5859Z" fill="black"/>
</svg>
