<svg width="25" height="23" viewBox="0 0 25 23" fill="none" xmlns="http://www.w3.org/2000/svg">
<path fill-rule="evenodd" clip-rule="evenodd" d="M8.53194 6.82085C4.03861 11.1536 1.34731 13.7831 1.15419 14.0293C0.418578 14.9672 0.000586833 16.1183 7.27479e-07 17.2078C-0.00126917 19.5105 1.66014 21.7708 3.99304 22.64C5.42846 23.1749 7.0318 23.1112 8.37623 22.4659C9.26501 22.0394 9.07057 22.2168 16.6483 14.9189C20.8858 10.8379 23.9095 7.88975 24.0733 7.6795C24.7351 6.82999 25.0595 5.82404 24.991 4.83378C24.8378 2.61935 22.9509 0.722656 20.6555 0.475739C19.6412 0.366606 18.6525 0.612392 17.6807 1.21522C17.3815 1.40074 8.34228 10.0696 7.97988 10.5184C7.7237 10.8357 7.45702 11.361 7.35211 11.7549C7.25633 12.1145 7.25691 12.8453 7.35328 13.2412C7.50923 13.8818 8.04034 14.7144 8.55973 15.1327C9.28992 15.7206 10.0435 15.9963 10.916 15.9948C11.6919 15.9934 12.3163 15.7861 12.9444 15.3213C13.1182 15.1927 15.0243 13.3836 17.18 11.301L21.0996 7.51452V7.31261C21.0996 7.04227 20.9947 6.86241 20.7795 6.76392C20.3836 6.58265 20.6311 6.37347 16.2154 10.6231C12.5197 14.1798 12.1592 14.5135 11.8635 14.6516C11.2214 14.9515 10.5875 14.9561 9.95066 14.6654C9.30638 14.3714 8.74064 13.7637 8.54644 13.1571C8.36299 12.5841 8.44114 11.9102 8.74889 11.4104C8.91447 11.1416 17.9423 2.43293 18.3336 2.16458C18.7453 1.88227 19.2872 1.67545 19.8069 1.60232C21.1925 1.40743 22.7418 2.26042 23.4439 3.6048C24.0384 4.7433 23.9449 5.92101 23.1785 6.94539C22.8658 7.36331 8.83906 20.8635 8.47391 21.098C6.93265 22.0876 5.17531 22.1279 3.6381 21.2089C2.74717 20.6763 2.12971 20.0283 1.681 19.1549C1.29769 18.4089 1.20572 18.0354 1.20513 17.2229C1.20474 16.6417 1.22022 16.5139 1.33534 16.1487C1.48197 15.6834 1.67817 15.2849 1.96648 14.8669C2.09196 14.6849 4.69793 12.1328 9.2801 7.70438C14.8624 2.30943 16.4045 0.79414 16.4252 0.683263C16.4679 0.45411 16.4102 0.292059 16.2324 0.141412C16.0975 0.0270949 16.0214 0 15.8355 0H15.6056L8.53194 6.82085Z" fill="#9B9A9A"/>
</svg>
