<svg width="17" height="17" viewBox="0 0 17 17" fill="none" xmlns="http://www.w3.org/2000/svg">
<path fill-rule="evenodd" clip-rule="evenodd" d="M7.90028 0.00834425C7.83622 0.015862 7.64153 0.0374175 7.46765 0.0562785C6.36967 0.175366 5.15378 0.587181 4.17265 1.17234C2.92395 1.91703 1.90903 2.9315 1.16401 4.17966C0.583392 5.15235 0.197753 6.28271 0.0404092 7.47322C-0.0134697 7.88081 -0.0134697 9.12803 0.0404092 9.53562C0.197753 10.7261 0.583392 11.8565 1.16401 12.8292C1.90903 14.0773 2.92395 15.0918 4.17265 15.8365C5.14576 16.4169 6.27662 16.8023 7.46765 16.9596C7.87542 17.0135 9.12319 17.0135 9.53096 16.9596C11.6032 16.6859 13.3597 15.7762 14.7932 14.2342C15.5863 13.3811 16.2068 12.32 16.5875 11.1656C16.8877 10.2556 17 9.53106 17 8.50442C17 7.74492 16.9679 7.40938 16.8315 6.74139C16.3639 4.4511 14.8918 2.40436 12.826 1.17234C11.8628 0.597892 10.7142 0.204273 9.56424 0.0545155C9.27238 0.0165273 8.10661 -0.0158391 7.90028 0.00834425ZM9.49768 1.7381C10.6321 1.90373 11.7062 2.36115 12.6705 3.08934C13.0191 3.35257 13.6534 3.98656 13.9168 4.335C14.8676 5.59313 15.3344 6.9661 15.3344 8.50442C15.3344 9.37056 15.2059 10.1035 14.924 10.8446C14.5402 11.8541 14.0676 12.5894 13.3268 13.3298C12.2632 14.393 10.9758 15.0447 9.48104 15.2765C8.98445 15.3535 8.01416 15.3535 7.51757 15.2765C6.33899 15.0937 5.29475 14.6494 4.32806 13.9195C3.97946 13.6563 3.3452 13.0223 3.08186 12.6738C2.35161 11.7076 1.90714 10.6638 1.72427 9.48572C1.64716 8.98888 1.64719 8.01929 1.7244 7.52311C1.90654 6.3522 2.35714 5.29399 3.08186 4.335C3.3452 3.98656 3.97946 3.35257 4.32806 3.08934C5.84463 1.94421 7.6598 1.46976 9.49768 1.7381ZM8.93193 3.00242C8.93193 3.36714 8.88448 3.50611 8.71985 3.62351C8.57774 3.7248 8.2787 3.72756 8.14398 3.62879C7.98271 3.51054 7.93366 3.36857 7.93363 3.01979L7.93356 2.7078L7.70383 2.73042C7.16285 2.78371 6.55367 2.97332 5.92017 3.2856C5.34507 3.56912 4.93311 3.85912 4.46081 4.31308C3.50657 5.23022 2.90784 6.38879 2.7289 7.66449L2.68574 7.97218H2.99783C3.35312 7.97218 3.48597 8.014 3.61402 8.16608C3.73875 8.31428 3.76155 8.49693 3.67865 8.68425C3.57499 8.9185 3.4623 8.96986 3.05181 8.96999C2.86528 8.97006 2.70597 8.98133 2.69775 8.99507C2.68956 9.00881 2.70188 9.15474 2.72511 9.3194C2.9924 11.2127 4.18713 12.871 5.88689 13.7082C6.52678 14.0234 7.13389 14.2151 7.68397 14.2759C7.79379 14.288 7.90983 14.3052 7.94188 14.314C7.99493 14.3288 8.00012 14.2958 8.00012 13.9438C8.00012 13.534 8.02528 13.4404 8.17167 13.306C8.40606 13.0908 8.79789 13.1719 8.95174 13.4675C8.98405 13.5296 8.99849 13.6767 8.99849 13.9438C8.99849 14.2959 9.00365 14.3287 9.05673 14.3137C9.08878 14.3047 9.21088 14.2869 9.32809 14.2744C9.65785 14.2389 10.2449 14.0831 10.6384 13.9264C11.3588 13.6396 11.951 13.2576 12.5204 12.7124C13.5416 11.7347 14.1373 10.5275 14.3055 9.09486L14.3279 8.90359H13.9311C13.5735 8.90359 13.5232 8.89614 13.422 8.82795C13.2765 8.72995 13.174 8.49281 13.2052 8.32652C13.233 8.17796 13.3702 8.01087 13.5135 7.95103C13.5811 7.92282 13.75 7.90566 13.9603 7.90566H14.2985L14.2759 7.69775C14.1742 6.76358 13.6763 5.62231 13.0242 4.82868C12.082 3.68215 10.7699 2.94052 9.31464 2.73201C9.13161 2.7058 8.97064 2.68405 8.95689 2.68371C8.94315 2.68338 8.93193 2.82679 8.93193 3.00242ZM5.75993 5.11296C5.81145 5.13212 6.44888 5.74199 7.17639 6.46829L8.49917 7.78876L9.18978 7.09999C9.93144 6.36028 10.034 6.2869 10.2709 6.32689C10.4519 6.35749 10.6473 6.55358 10.6781 6.73564C10.7203 6.98522 10.6444 7.08399 9.65975 8.06077C8.87802 8.83627 8.73119 8.96766 8.6241 8.98759C8.3185 9.04443 8.3782 9.09297 6.70699 7.42911C5.82739 6.55335 5.14433 5.84714 5.11791 5.7861C4.93514 5.36408 5.32777 4.95243 5.75993 5.11296Z" fill="#DD291A"/>
</svg>
