<svg width="27" height="27" viewBox="0 0 27 27" fill="none" xmlns="http://www.w3.org/2000/svg">
<path d="M6.52398 26.209H4.79883C4.28999 26.209 3.87598 25.795 3.87598 25.2861V1.71387C3.87598 1.20503 4.28999 0.791016 4.79883 0.791016H11.6512C11.8697 0.791016 12.0467 0.613934 12.0467 0.395508C12.0467 0.177082 11.8697 0 11.6512 0H4.79883C3.85383 0 3.08496 0.768867 3.08496 1.71387V25.2861C3.08496 26.2311 3.85383 27 4.79883 27H6.52398C6.74241 27 6.91949 26.8229 6.91949 26.6045C6.91949 26.3861 6.74241 26.209 6.52398 26.209Z" fill="white"/>
<path d="M23.7991 5.57386L18.3411 0.115857C18.2895 0.0642305 18.2175 0.0233086 18.1386 0.00764648C18.1355 0.00453516 18.0665 0 18.0615 0H13.4969C13.2785 0 13.1014 0.177082 13.1014 0.395508C13.1014 0.613934 13.2785 0.791016 13.4969 0.791016H17.666V4.53516C17.666 5.48016 18.4348 6.24902 19.3798 6.24902H23.124V25.2861C23.124 25.795 22.71 26.209 22.2011 26.209H8.36963C8.1512 26.209 7.97412 26.3861 7.97412 26.6045C7.97412 26.8229 8.1512 27 8.36963 27H22.2011C23.1461 27 23.915 26.2311 23.915 25.2861V5.85352C23.915 5.75374 23.8748 5.64949 23.7991 5.57386ZM19.3798 5.45801C18.871 5.45801 18.457 5.04399 18.457 4.53516V1.35032L22.5647 5.45801H19.3798Z" fill="white"/>
<path d="M20.3555 8.6897H6.64453C6.42611 8.6897 6.24902 8.86678 6.24902 9.08521C6.24902 9.30363 6.42611 9.48071 6.64453 9.48071H20.3555C20.5739 9.48071 20.751 9.30363 20.751 9.08521C20.751 8.86678 20.5739 8.6897 20.3555 8.6897Z" fill="white"/>
<path d="M20.3555 12.2053H6.64453C6.42611 12.2053 6.24902 12.3824 6.24902 12.6008C6.24902 12.8193 6.42611 12.9963 6.64453 12.9963H20.3555C20.5739 12.9963 20.751 12.8193 20.751 12.6008C20.751 12.3824 20.5739 12.2053 20.3555 12.2053Z" fill="white"/>
<path d="M20.3555 15.7209H6.64453C6.42611 15.7209 6.24902 15.898 6.24902 16.1165C6.24902 16.3349 6.42611 16.512 6.64453 16.512H20.3555C20.5739 16.512 20.751 16.3349 20.751 16.1165C20.751 15.898 20.5739 15.7209 20.3555 15.7209Z" fill="white"/>
<path d="M20.3555 19.2366H6.64453C6.42611 19.2366 6.24902 19.4137 6.24902 19.6321C6.24902 19.8505 6.42611 20.0276 6.64453 20.0276H20.3555C20.5739 20.0276 20.751 19.8505 20.751 19.6321C20.751 19.4137 20.5739 19.2366 20.3555 19.2366Z" fill="white"/>
</svg>
