<svg width="17" height="19" viewBox="0 0 17 19" fill="none" xmlns="http://www.w3.org/2000/svg">
<path d="M2.82346 5.2951C4.33974 3.77881 6.35582 2.94374 8.50019 2.94374H9.67719L7.78806 1.04997L8.84063 0L12.5199 3.68826L8.88865 7.3802L7.82869 6.33769L9.70461 4.43041H8.50019C4.89323 4.43041 1.95873 7.36487 1.95873 10.9719C1.95873 14.5789 4.89323 17.5133 8.50019 17.5133C12.1071 17.5133 15.0416 14.5788 15.0416 10.9717V10.2284L16.5283 10.2285V10.9719C16.5283 13.1163 15.6932 15.1323 14.1769 16.6486C12.6606 18.1649 10.6446 19 8.50019 19C6.35582 19 4.33974 18.1649 2.82346 16.6486C1.30713 15.1323 0.472057 13.1162 0.472057 10.9719C0.472057 8.8275 1.30713 6.81143 2.82346 5.2951Z" fill="white"/>
</svg>
