<svg width="18" height="18" viewBox="0 0 18 18" fill="none" xmlns="http://www.w3.org/2000/svg">
<path d="M0.418213 17.617L1.63 13.1919C0.882523 11.8967 0.489349 10.4276 0.489899 8.92245C0.491821 4.21385 4.32358 0.383057 9.03204 0.383057C11.3169 0.384018 13.4616 1.27336 15.0744 2.88753C16.687 4.50169 17.5749 6.64732 17.574 8.92932C17.572 13.6378 13.7397 17.4691 9.03204 17.4691C9.03177 17.4691 9.03218 17.4691 9.03204 17.4691H9.02833C7.59874 17.4686 6.19414 17.11 4.9465 16.4295L0.418213 17.617ZM5.1562 14.8836L5.41562 15.0373C6.50546 15.6841 7.75502 16.0262 9.0293 16.0269H9.03204C12.9451 16.0269 16.13 12.8425 16.1317 8.92877C16.1324 7.03212 15.3946 5.24863 14.0542 3.90706C12.7136 2.56549 10.9312 1.82625 9.03465 1.82542C5.11844 1.82542 1.93364 5.0094 1.93213 8.923C1.93158 10.2642 2.30676 11.5702 3.01758 12.7004L3.18649 12.969L2.46909 15.5881L5.1562 14.8836Z" fill="white"/>
<path d="M0.715332 17.3191L1.88524 13.0469C1.16344 11.7966 0.783997 10.3782 0.784409 8.92537C0.786194 4.37978 4.48543 0.681641 9.03061 0.681641C11.2367 0.682602 13.3072 1.54118 14.8638 3.09946C16.4208 4.65773 17.2778 6.72906 17.277 8.93182C17.275 13.4776 13.5757 17.1761 9.03102 17.1761C9.03061 17.1761 9.03116 17.1761 9.03102 17.1761H9.02732C7.64729 17.1756 6.29117 16.8292 5.08679 16.1728L0.715332 17.3191Z" fill="#5A5A5A"/>
<path fill-rule="evenodd" clip-rule="evenodd" d="M6.89705 5.35257C6.7372 4.99716 6.56883 4.99002 6.41667 4.98384C6.29225 4.97849 6.14984 4.97876 6.00771 4.97876C5.86543 4.97876 5.63417 5.03232 5.43861 5.24587C5.24292 5.45941 4.69141 5.97577 4.69141 7.02593C4.69141 8.07622 5.45633 9.09094 5.56303 9.23349C5.66974 9.3759 7.0396 11.5998 9.20898 12.4554C11.012 13.1665 11.3788 13.025 11.7702 12.9894C12.1616 12.9539 13.0329 12.4731 13.2108 11.9747C13.3887 11.4763 13.3887 11.0493 13.3353 10.9599C13.2819 10.871 13.1396 10.8176 12.9262 10.7109C12.7128 10.6042 11.6635 10.0877 11.4678 10.0165C11.2721 9.94527 11.1298 9.90984 10.9875 10.1235C10.8451 10.3369 10.4364 10.8176 10.3119 10.9599C10.1873 11.1025 10.0628 11.1204 9.84935 11.0136C9.63594 10.9066 8.94847 10.6814 8.13301 9.95419C7.49855 9.38854 7.07008 8.68981 6.94553 8.47612C6.82111 8.26271 6.94347 8.15724 7.03932 8.04065C7.21194 7.83068 7.50157 7.45316 7.57271 7.31088C7.64384 7.16834 7.60828 7.04378 7.55499 6.93694C7.50157 6.83023 7.0867 5.77472 6.89705 5.35257Z" fill="white"/>
</svg>
