<svg width="36" height="48" viewBox="0 0 36 48" fill="none" xmlns="http://www.w3.org/2000/svg">
<path d="M18 0C11.383 0 6 5.38082 6 11.9942V24.0065C6 30.6197 11.383 36 18 36C24.617 36 30 30.6199 30 24.0065V11.9942C30 5.38082 24.6168 0 18 0ZM28.6667 24.0065C28.6667 29.8847 23.8816 34.6667 18 34.6667C12.1184 34.6667 7.33331 29.8847 7.33331 24.0065V11.9942C7.33331 6.116 12.1184 1.33331 18 1.33331C23.8816 1.33331 28.6667 6.11583 28.6667 11.9942V24.0065Z" fill="white" fill-opacity="0.65"/>
<path d="M18 4C17.6318 4 17.3333 4.29821 17.3333 4.66674V10.7039C17.3333 11.0724 17.6318 11.3706 18 11.3706C18.3682 11.3706 18.6667 11.0724 18.6667 10.7039V4.66674C18.6666 4.29821 18.3682 4 18 4Z" fill="white" fill-opacity="0.65"/>
<path d="M17.3109 26.4798L17.3109 45.384L12.9745 41.1231L12 42.0806L18 47.9763L24 42.0806L23.0254 41.1231L18.6891 45.384L18.6891 26.4798L17.3109 26.4798Z" fill="white" fill-opacity="0.65"/>
</svg>
