<svg width="14" height="14" viewBox="0 0 14 14" fill="none" xmlns="http://www.w3.org/2000/svg">
<g clip-path="url(#clip0_96:6)">
<path d="M0.929226 0.519864C1.48835 -0.0405731 3.17841 -0.134198 3.1911 0.162427C3.20379 0.458614 4.71316 3.74599 4.72629 4.04261C4.73941 4.3388 3.73141 5.34943 3.43654 5.64518C3.14429 5.93786 5.40879 8.50336 5.45166 8.55193C5.49979 8.59524 8.05916 10.865 8.35141 10.5719C8.64629 10.2761 9.65473 9.26593 9.9496 9.27905C10.2454 9.29174 13.5253 10.8046 13.821 10.8182C14.1168 10.8309 14.0236 12.5244 13.4645 13.0853C12.9863 13.5644 10.5105 15.3039 6.20548 12.1976C5.73341 11.9255 4.98573 11.3012 3.85173 10.165C3.85129 10.1646 3.85041 10.1637 3.84954 10.1632C3.84866 10.1619 3.84779 10.1615 3.84691 10.1606C3.84604 10.1597 3.84516 10.1589 3.84429 10.158C3.84385 10.1571 3.84298 10.1562 3.84254 10.1558C2.70941 9.01918 2.08641 8.2693 1.81473 7.79636C-1.28409 3.48086 0.451476 0.998927 0.929226 0.519864Z" fill="#5A5A5A"/>
</g>
<defs>
<clipPath id="clip0_96:6">
<rect width="14" height="14" fill="white"/>
</clipPath>
</defs>
</svg>
