<svg width="22" height="22" viewBox="0 0 22 22" fill="none" xmlns="http://www.w3.org/2000/svg">
<g clip-path="url(#clip0_43:538)">
<path d="M20.4828 22H1.51723C0.682773 22 0 21.3172 0 20.4828V1.51723C0 0.682773 0.682773 0 1.51723 0H20.4828C21.3172 0 22 0.682773 22 1.51723V20.4828C22 21.3172 21.3172 22 20.4828 22Z" fill="#4D6FA9"/>
<path d="M18.5862 3.79301V7.58612H15.1724C14.7552 7.58612 14.4138 7.92751 14.4138 8.34473V10.6206H18.2069V14.4137H14.4138V21.9999H10.6207V14.4137H7.58618V10.6206H10.6207V8.34469C10.6207 5.95503 12.4413 3.98263 14.7931 3.79297H18.5862V3.79301Z" fill="white"/>
</g>
<defs>
<clipPath id="clip0_43:538">
<rect width="22" height="22" fill="white"/>
</clipPath>
</defs>
</svg>
