<svg width="254" height="36" viewBox="0 0 254 36" fill="none" xmlns="http://www.w3.org/2000/svg">
<g clip-path="url(#clip0_143_11)">
<path fill-rule="evenodd" clip-rule="evenodd" d="M146.529 9.72011C146.529 8.16011 146.409 7.08011 146.17 6.72011C145.93 6.24011 145.331 6.12011 144.612 6.12011C143.893 6.12011 143.414 6.24011 143.055 6.60011C142.695 6.96011 142.456 8.04011 142.456 9.72011V25.5601C142.456 27.4801 142.575 28.8001 142.815 29.1601C143.055 29.6401 143.654 29.8801 144.492 29.8801C145.331 29.8801 145.93 29.6401 146.17 29.0401C146.409 28.5601 146.529 27.2401 146.529 25.2001V9.72011ZM159.469 20.7601C159.469 24.1201 159.349 26.5201 159.109 27.9601C158.87 29.4001 158.151 30.7201 156.833 31.8001C155.635 33.0001 153.957 33.8401 151.801 34.5601C149.644 35.1601 147.248 35.5201 144.372 35.5201C141.737 35.5201 139.34 35.2801 137.184 34.6801C135.027 34.0801 133.35 33.2401 132.032 32.0401C130.714 30.8401 129.995 29.5201 129.756 28.2001C129.516 26.7601 129.396 24.3601 129.396 20.8801V15.1201C129.396 11.7601 129.516 9.36011 129.756 7.92011C129.995 6.48011 130.714 5.16011 132.032 4.08011C133.23 2.88011 134.907 2.04011 137.064 1.44011C139.221 0.840109 141.617 0.48011 144.492 0.48011C147.128 0.48011 149.524 0.720107 151.681 1.32011C153.838 1.92011 155.515 2.76011 156.833 3.96011C158.151 5.16011 158.87 6.48011 159.109 7.80011C159.349 9.24011 159.469 11.6401 159.469 15.1201V20.7601ZM127.958 0.960107L120.53 16.2001L128.677 34.8001H115.258L109.987 20.2801V34.8001H97.047V0.960107H109.987V14.1601L115.738 0.960107H127.958ZM91.7753 0.960107V34.8001H80.3933V12.0001L75.8404 34.8001H67.8131L63.0206 12.4801V34.8001H51.6385V0.960107H68.4121C68.8914 3.00011 69.3706 5.40011 69.9697 8.16011L71.8867 16.8001L74.8819 0.960107H91.7753ZM46.4867 1.08011V34.9201H33.547V1.08011H46.4867ZM28.3952 11.2801H16.2942V8.76011C16.2942 7.56011 16.1744 6.84011 15.815 6.48011C15.4555 6.12011 14.9763 6.00011 14.2574 6.00011C13.4187 6.00011 12.9395 6.24011 12.4603 6.60011C12.1008 7.20011 11.981 7.80011 11.981 8.64011C11.981 9.72011 12.2206 10.6801 12.6999 11.1601C13.1791 11.7601 14.3772 12.3601 16.414 13.2001C22.165 15.4801 25.8791 17.4001 27.3169 18.9601C28.8744 20.4001 29.5933 22.8001 29.5933 26.1601C29.5933 28.5601 29.114 30.3601 28.3952 31.4401C27.5565 32.6401 25.9989 33.6001 23.6027 34.3201C21.2065 35.0401 18.4508 35.5201 15.2159 35.5201C11.7414 35.5201 8.7461 35.0401 6.34988 34.2001C3.83384 33.3601 2.27629 32.1601 1.55742 30.8401C0.838556 29.4001 0.35931 27.4801 0.35931 24.9601V22.8001H12.4603V26.8801C12.4603 28.2001 12.5801 28.9201 12.9395 29.2801C13.2989 29.6401 13.898 29.8801 14.7367 29.8801C15.5753 29.8801 16.2942 29.6401 16.6537 29.1601C17.1329 28.6801 17.2527 27.9601 17.2527 27.1201C17.2527 25.0801 16.8933 23.8801 16.0546 23.1601C15.2159 22.5601 13.1791 21.4801 9.94421 20.0401C6.70931 18.6001 4.55271 17.5201 3.47441 16.9201C2.39611 16.3201 1.55743 15.3601 0.838557 14.1601C0.11969 12.9601 -0.239746 11.5201 -0.239746 9.72011C-0.239746 7.08011 0.2395 5.28011 1.19799 4.08011C2.15648 2.88011 3.71403 1.92011 5.87063 1.32011C8.02724 0.600106 10.6631 0.360107 13.7782 0.360107C17.1329 0.360107 20.0084 0.720109 22.4046 1.44011C24.8008 2.16011 26.3584 3.12011 27.0772 4.20011C27.7961 5.28011 28.2753 7.20011 28.2753 9.96011L28.3952 11.2801Z" fill="#D24A43"/>
<path d="M176.841 1.08008V28.0801H184.749V34.8001H163.782V1.08008H176.841Z" fill="#404346"/>
<path d="M212.425 1.08008L219.854 34.8001H206.555L205.836 28.6801H201.283L200.444 34.8001H187.025L193.615 1.08008H212.425ZM205.596 22.8001C204.997 18.9601 204.278 14.2801 203.559 8.64008C202.241 15.1201 201.403 19.8001 201.043 22.8001H205.596Z" fill="#404346"/>
<path d="M223.208 1.08008H236.148C240.222 1.08008 243.337 1.32008 245.493 1.68008C247.65 2.16008 249.327 3.00007 250.645 4.32007C251.963 5.64008 252.562 7.80008 252.562 10.6801C252.562 12.6001 252.083 14.0401 251.244 14.7601C250.286 15.4801 248.489 16.0801 245.853 16.5601C248.848 17.0401 250.885 17.7601 251.963 18.8401C253.041 19.9201 253.521 21.4801 253.521 23.7601V26.8801C253.521 29.1601 253.161 30.8401 252.323 31.9201C251.604 33.0001 250.286 33.7201 248.608 34.2001C246.931 34.5601 243.457 34.8001 238.185 34.8001H223.208V1.08008ZM236.148 6.84008V14.4001C236.747 14.4001 237.107 14.4001 237.466 14.4001C238.784 14.4001 239.503 14.1601 239.862 13.8001C240.222 13.3201 240.342 12.1201 240.342 10.2001C240.342 9.12008 240.222 8.40008 239.862 7.92008C239.623 7.44008 239.143 7.20008 238.784 7.08008C238.425 6.96008 237.466 6.84008 236.148 6.84008ZM236.148 19.5601V29.0401C237.945 29.0401 239.143 28.8001 239.623 28.4401C240.102 28.0801 240.342 27.2401 240.342 25.9201V22.8001C240.342 21.3601 240.102 20.5201 239.623 20.1601C239.263 19.8001 238.065 19.6801 236.148 19.5601Z" fill="#404346"/>
</g>
<defs>
<clipPath id="clip0_143_11">
<rect width="254" height="36" fill="white"/>
</clipPath>
</defs>
</svg>
