<svg aria-hidden="true" style="position: absolute; width: 0; height: 0; overflow: hidden;" version="1.1" xmlns="http://www.w3.org/2000/svg" xmlns:xlink="http://www.w3.org/1999/xlink">
<defs>
<symbol id="icon-arrow__left" viewBox="0 0 32 32">
<path d="M32 14.992h-28.141l6.343-6.343-1.425-1.425-8.776 8.776 8.776 8.776 1.425-1.425-6.343-6.343h28.141v-2.016z"></path>
</symbol>
<symbol id="icon-arrow__right" viewBox="0 0 32 32">
<path d="M0 17.008h28.141l-6.343 6.343 1.426 1.425 8.776-8.776-8.776-8.777-1.426 1.425 6.343 6.343h-28.141v2.016z"></path>
</symbol>
<symbol id="icon-checked__red" viewBox="0 0 41 32">
<path d="M25.864 11.999l-11.654 11.999-10.323-10.627-3.887 4 14.209 14.631 13.618-14.020c7.489-7.711 13.603-14.045 13.585-14.075s-0.902-0.921-1.964-1.98l-1.931-1.925-11.653 11.999z"></path>
</symbol>
<symbol id="icon-clip__grey" viewBox="0 0 35 32">
<path d="M11.871 9.49c-6.252 6.028-9.996 9.687-10.265 10.029-1.023 1.305-1.605 2.906-1.606 4.422-0.002 3.204 2.31 6.349 5.556 7.558 1.997 0.744 4.228 0.656 6.098-0.242 1.237-0.593 0.966-0.347 11.509-10.5 5.896-5.678 10.103-9.78 10.33-10.072 0.921-1.182 1.372-2.582 1.277-3.959-0.213-3.081-2.838-5.72-6.032-6.063-1.411-0.152-2.787 0.19-4.139 1.029-0.416 0.258-12.993 12.319-13.497 12.944-0.356 0.441-0.727 1.172-0.873 1.72-0.133 0.5-0.132 1.517 0.002 2.068 0.217 0.891 0.956 2.050 1.679 2.632 1.016 0.818 2.064 1.202 3.278 1.199 1.079-0.002 1.948-0.29 2.822-0.937 0.242-0.179 2.894-2.696 5.893-5.593l5.453-5.268v-0.281c0-0.376-0.146-0.626-0.445-0.763-0.551-0.252-0.206-0.543-6.35 5.369-5.142 4.948-5.643 5.413-6.055 5.605-0.893 0.417-1.775 0.424-2.661 0.019-0.896-0.409-1.684-1.255-1.954-2.099-0.255-0.797-0.146-1.735 0.282-2.43 0.23-0.374 12.791-12.49 13.335-12.864 0.573-0.393 1.327-0.681 2.050-0.782 1.928-0.271 4.083 0.916 5.060 2.786 0.827 1.584 0.697 3.223-0.369 4.648-0.435 0.581-19.951 19.364-20.459 19.691-2.144 1.377-4.589 1.433-6.728 0.154-1.24-0.741-2.099-1.643-2.723-2.858-0.533-1.038-0.661-1.558-0.662-2.688-0.001-0.809 0.021-0.986 0.181-1.495 0.204-0.647 0.477-1.202 0.878-1.783 0.175-0.253 3.8-3.804 10.175-9.965 7.767-7.506 9.912-9.614 9.941-9.768 0.059-0.319-0.021-0.544-0.268-0.754-0.188-0.159-0.294-0.197-0.552-0.197h-0.32l-9.842 9.49z"></path>
</symbol>
<symbol id="icon-clock__red" viewBox="0 0 32 32">
<path d="M14.871 0.016c-0.121 0.014-0.487 0.055-0.814 0.090-2.067 0.224-4.356 0.999-6.202 2.101-2.35 1.402-4.261 3.311-5.663 5.661-1.093 1.831-1.819 3.959-2.115 6.2-0.101 0.767-0.101 3.115 0 3.882 0.296 2.241 1.022 4.369 2.115 6.2 1.402 2.349 3.313 4.259 5.663 5.661 1.832 1.093 3.96 1.818 6.202 2.114 0.768 0.101 3.116 0.101 3.884 0 3.901-0.515 7.207-2.228 9.905-5.13 1.493-1.606 2.661-3.603 3.378-5.776 0.565-1.713 0.776-3.077 0.776-5.009 0-1.43-0.060-2.061-0.317-3.319-0.88-4.311-3.651-8.164-7.54-10.483-1.813-1.081-3.975-1.822-6.14-2.104-0.549-0.071-2.744-0.132-3.132-0.087zM17.878 3.272c2.135 0.312 4.157 1.173 5.972 2.543 0.656 0.495 1.85 1.689 2.346 2.345 1.79 2.368 2.668 4.953 2.668 7.848 0 1.63-0.242 3.010-0.773 4.405-0.722 1.9-1.612 3.284-3.006 4.678-2.002 2.001-4.425 3.228-7.239 3.664-0.935 0.145-2.761 0.145-3.696 0-2.219-0.344-4.184-1.18-6.004-2.554-0.656-0.495-1.85-1.689-2.346-2.345-1.375-1.819-2.211-3.784-2.555-6.001-0.145-0.935-0.145-2.76 0-3.694 0.343-2.204 1.191-4.196 2.555-6.001 0.496-0.656 1.69-1.849 2.346-2.345 2.855-2.156 6.271-3.049 9.731-2.543zM16.813 5.652c0 0.687-0.089 0.948-0.399 1.169-0.267 0.191-0.83 0.196-1.084 0.010-0.304-0.223-0.396-0.49-0.396-1.146l-0-0.587-0.432 0.043c-1.018 0.1-2.165 0.457-3.357 1.045-1.083 0.534-1.858 1.080-2.747 1.934-1.796 1.726-2.923 3.907-3.26 6.309l-0.081 0.579h0.587c0.669 0 0.919 0.079 1.16 0.365 0.235 0.279 0.278 0.623 0.122 0.975-0.195 0.441-0.407 0.538-1.18 0.538-0.351 0-0.651 0.021-0.666 0.047s0.008 0.301 0.051 0.61c0.503 3.564 2.752 6.685 5.952 8.261 1.204 0.593 2.347 0.954 3.383 1.069 0.207 0.023 0.425 0.055 0.485 0.072 0.1 0.028 0.11-0.034 0.11-0.697 0-0.771 0.047-0.948 0.323-1.201 0.441-0.405 1.179-0.252 1.468 0.304 0.061 0.117 0.088 0.394 0.088 0.897 0 0.663 0.010 0.725 0.11 0.696 0.060-0.017 0.29-0.050 0.511-0.074 0.621-0.067 1.726-0.36 2.466-0.655 1.356-0.54 2.471-1.259 3.543-2.285 1.922-1.84 3.044-4.113 3.36-6.809l0.042-0.36h-0.747c-0.673 0-0.768-0.014-0.958-0.142-0.274-0.184-0.467-0.631-0.408-0.944 0.052-0.28 0.311-0.594 0.58-0.707 0.127-0.053 0.445-0.085 0.841-0.085h0.637l-0.043-0.391c-0.191-1.758-1.129-3.907-2.356-5.401-1.774-2.158-4.243-3.554-6.983-3.947-0.345-0.049-0.648-0.090-0.673-0.091s-0.047 0.269-0.047 0.6zM10.842 9.624c0.097 0.036 1.297 1.184 2.666 2.551l2.49 2.486 1.3-1.296c1.396-1.392 1.589-1.531 2.035-1.455 0.341 0.058 0.709 0.427 0.767 0.769 0.079 0.47-0.063 0.656-1.917 2.494-1.471 1.46-1.748 1.707-1.949 1.745-0.575 0.107-0.463 0.198-3.609-2.934-1.656-1.649-2.941-2.978-2.991-3.093-0.344-0.794 0.395-1.569 1.209-1.267z"></path>
</symbol>
<symbol id="icon-file__white" viewBox="0 0 32 32">
<path d="M7.732 31.063h-2.045c-0.603 0-1.094-0.491-1.094-1.094v-27.937c0-0.603 0.491-1.094 1.094-1.094h8.121c0.259 0 0.469-0.21 0.469-0.469s-0.21-0.469-0.469-0.469h-8.121c-1.12 0-2.031 0.911-2.031 2.031v27.937c0 1.12 0.911 2.031 2.031 2.031h2.045c0.259 0 0.469-0.21 0.469-0.469s-0.21-0.469-0.469-0.469z"></path>
<path d="M28.206 6.606l-6.469-6.469c-0.061-0.061-0.146-0.11-0.24-0.128-0.004-0.004-0.085-0.009-0.091-0.009h-5.41c-0.259 0-0.469 0.21-0.469 0.469s0.21 0.469 0.469 0.469h4.941v4.438c0 1.12 0.911 2.031 2.031 2.031h4.438v22.562c0 0.603-0.491 1.094-1.094 1.094h-16.393c-0.259 0-0.469 0.21-0.469 0.469s0.21 0.469 0.469 0.469h16.393c1.12 0 2.031-0.911 2.031-2.031v-23.031c0-0.118-0.048-0.242-0.137-0.331zM22.969 6.469c-0.603 0-1.094-0.491-1.094-1.094v-3.775l4.868 4.868h-3.775z"></path>
<path d="M24.125 10.299h-16.25c-0.259 0-0.469 0.21-0.469 0.469s0.21 0.469 0.469 0.469h16.25c0.259 0 0.469-0.21 0.469-0.469s-0.21-0.469-0.469-0.469z"></path>
<path d="M24.125 14.466h-16.25c-0.259 0-0.469 0.21-0.469 0.469s0.21 0.469 0.469 0.469h16.25c0.259 0 0.469-0.21 0.469-0.469s-0.21-0.469-0.469-0.469z"></path>
<path d="M24.125 18.632h-16.25c-0.259 0-0.469 0.21-0.469 0.469s0.21 0.469 0.469 0.469h16.25c0.259 0 0.469-0.21 0.469-0.469s-0.21-0.469-0.469-0.469z"></path>
<path d="M24.125 22.799h-16.25c-0.259 0-0.469 0.21-0.469 0.469s0.21 0.469 0.469 0.469h16.25c0.259 0 0.469-0.21 0.469-0.469s-0.21-0.469-0.469-0.469z"></path>
</symbol>
<symbol id="icon-anchor" viewBox="0 0 24 32">
<path d="M12 0c-4.411 0-8 3.587-8 7.996v8.008c0 4.409 3.589 7.996 8 7.996s8-3.587 8-7.996v-8.008c0-4.409-3.589-7.996-8-7.996zM19.111 16.004c0 3.919-3.19 7.107-7.111 7.107s-7.111-3.188-7.111-7.107v-8.008c0-3.919 3.19-7.107 7.111-7.107s7.111 3.188 7.111 7.107v8.008z"></path>
<path d="M12 2.667c-0.245 0-0.444 0.199-0.444 0.445v4.025c0 0.246 0.199 0.444 0.444 0.444s0.444-0.199 0.444-0.444v-4.025c-0-0.246-0.199-0.445-0.444-0.445z"></path>
<path d="M11.541 17.653v12.603l-2.891-2.841-0.65 0.638 4 3.93 4-3.93-0.65-0.638-2.891 2.841v-12.603h-0.919z"></path>
</symbol>
<symbol id="icon-download" viewBox="0 0 32 32">
<path d="M25.611 17.406l-9.611 9.612-9.612-9.612 1.768-1.768 6.594 6.594v-22.232h2.5v22.232l6.594-6.594 1.768 1.768zM32 29.5h-32v2.5h32v-2.5z"></path>
</symbol>
<symbol id="icon-mail" viewBox="0 0 40 32">
<path d="M39.453 1.905c-0.564-0.845-1.512-1.404-2.582-1.404h-33.742c-1.048 0-1.974 0.539-2.542 1.355l19.475 16.628 19.391-16.579z"></path>
<path d="M0.004 4.69v23.609c0 1.76 1.406 3.2 3.125 3.2h33.743c1.719 0 3.125-1.44 3.125-3.2v-23.524l-19.934 17.043-20.058-17.128z"></path>
</symbol>
<symbol id="icon-phone" viewBox="0 0 32 32">
<path d="M2.124 1.188c1.278-1.281 5.141-1.495 5.17-0.817 0.029 0.677 3.479 8.191 3.509 8.869s-2.274 2.987-2.948 3.663c-0.668 0.669 4.508 6.533 4.606 6.644 0.11 0.099 5.96 5.287 6.628 4.617 0.674-0.676 2.979-2.985 3.653-2.955 0.676 0.029 8.173 3.487 8.849 3.518 0.676 0.029 0.463 3.9-0.815 5.182-1.093 1.095-6.752 5.071-16.592-2.029-1.079-0.622-2.788-2.049-5.38-4.646-0.001-0.001-0.003-0.003-0.005-0.004-0.002-0.003-0.004-0.004-0.006-0.006s-0.004-0.004-0.006-0.006c-0.001-0.002-0.003-0.004-0.004-0.005-2.59-2.598-4.014-4.312-4.635-5.393-7.083-9.864-3.116-15.537-2.024-16.632z"></path>
</symbol>
<symbol id="icon-refresh" viewBox="0 0 29 32">
<path d="M4.755 8.918c2.554-2.554 5.949-3.96 9.561-3.96h1.982l-3.182-3.189 1.773-1.768 6.197 6.212-6.116 6.218-1.785-1.756 3.159-3.212h-2.029c-6.075 0-11.017 4.942-11.017 11.017s4.942 11.017 11.017 11.017c6.075 0 11.017-4.942 11.017-11.017v-1.252l2.504 0v1.252c0 3.612-1.406 7.007-3.96 9.561s-5.949 3.96-9.561 3.96c-3.612 0-7.007-1.406-9.561-3.96s-3.96-5.949-3.96-9.561c0-3.612 1.406-7.007 3.96-9.561z"></path>
</symbol>
<symbol id="icon-whatsapp" viewBox="0 0 32 32">
<path d="M0.744 31.319l2.154-7.867c-1.329-2.303-2.028-4.914-2.027-7.59 0.003-8.371 6.815-15.181 15.186-15.181 4.062 0.002 7.875 1.583 10.742 4.452s4.445 6.684 4.444 10.741c-0.004 8.371-6.817 15.182-15.186 15.182-0 0 0 0 0 0h-0.007c-2.541-0.001-5.039-0.638-7.257-1.848l-8.050 2.111zM9.167 26.46l0.461 0.273c1.938 1.15 4.159 1.758 6.424 1.759h0.005c6.957 0 12.619-5.661 12.622-12.619 0.001-3.372-1.31-6.542-3.693-8.928s-5.552-3.699-8.924-3.701c-6.962 0-12.624 5.66-12.627 12.618-0.001 2.384 0.666 4.706 1.93 6.715l0.3 0.477-1.275 4.656 4.777-1.252z"></path>
<path d="M1.272 30.79l2.080-7.595c-1.283-2.223-1.958-4.744-1.957-7.327 0.003-8.081 6.58-14.656 14.66-14.656 3.922 0.002 7.603 1.528 10.37 4.298s4.292 6.453 4.29 10.369c-0.004 8.081-6.58 14.656-14.66 14.656-0.001 0 0 0 0 0h-0.007c-2.453-0.001-4.864-0.617-7.005-1.784l-7.771 2.038z"></path>
<path d="M12.261 9.516c-0.284-0.632-0.584-0.645-0.854-0.656-0.221-0.009-0.474-0.009-0.727-0.009s-0.664 0.095-1.012 0.475c-0.348 0.38-1.328 1.298-1.328 3.165s1.36 3.671 1.55 3.925c0.19 0.253 2.625 4.207 6.482 5.728 3.205 1.264 3.857 1.013 4.553 0.949s2.245-0.918 2.561-1.804 0.316-1.645 0.221-1.804c-0.095-0.158-0.348-0.253-0.727-0.443s-2.245-1.108-2.593-1.235c-0.348-0.127-0.601-0.19-0.854 0.19s-0.98 1.234-1.201 1.487c-0.221 0.253-0.443 0.285-0.822 0.095s-1.602-0.591-3.051-1.883c-1.128-1.006-1.89-2.248-2.111-2.628s-0.004-0.567 0.167-0.774c0.307-0.373 0.822-1.044 0.948-1.297s0.063-0.475-0.031-0.665c-0.095-0.19-0.832-2.066-1.17-2.817z"></path>
</symbol>
<symbol id="icon-fb" viewBox="0 0 32 32">
<path fill="#4d6fa9" style="fill: var(--color1, #4d6fa9)" d="M29.793 32h-27.586c-1.214 0-2.207-0.993-2.207-2.207v-27.586c0-1.214 0.993-2.207 2.207-2.207h27.586c1.214 0 2.207 0.993 2.207 2.207v27.586c0 1.214-0.993 2.207-2.207 2.207z"></path>
<path fill="#fff" style="fill: var(--color2, #fff)" d="M27.034 5.517v5.517h-4.966c-0.607 0-1.103 0.497-1.103 1.103v3.31h5.517v5.517h-5.517v11.034h-5.517v-11.034h-4.414v-5.517h4.414v-3.31c0-3.476 2.648-6.345 6.069-6.621l5.517 0z"></path>
</symbol>
<symbol id="icon-whatsapp__green" viewBox="0 0 32 32">
<path fill="#e5e5e5" style="fill: var(--color3, #e5e5e5)" d="M0.743 32c-0.18 0-0.354-0.071-0.484-0.202-0.171-0.173-0.237-0.424-0.173-0.658l2.080-7.597c-1.295-2.342-1.978-4.991-1.977-7.681 0.004-8.746 7.121-15.862 15.867-15.862 4.242 0.002 8.228 1.654 11.224 4.652s4.644 6.984 4.643 11.222c-0.004 8.747-7.122 15.863-15.867 15.863 0 0-0.007 0-0.007 0-2.554-0.001-5.087-0.624-7.342-1.803l-7.792 2.043c-0.057 0.015-0.115 0.022-0.173 0.022z"></path>
<path fill="#64b161" style="fill: var(--color4, #64b161)" d="M1.271 30.789l2.080-7.595c-1.283-2.223-1.958-4.744-1.957-7.327 0.003-8.081 6.58-14.655 14.66-14.655 3.922 0.002 7.603 1.528 10.37 4.298s4.292 6.453 4.29 10.369c-0.003 8.081-6.58 14.657-14.659 14.657-0.001 0 0 0 0 0h-0.007c-2.453-0.001-4.864-0.617-7.005-1.784l-7.771 2.038z"></path>
<path fill="#fff" style="fill: var(--color2, #fff)" d="M0.744 31.319l2.154-7.867c-1.329-2.303-2.028-4.914-2.027-7.59 0.003-8.371 6.815-15.181 15.186-15.181 4.062 0.002 7.875 1.583 10.742 4.452s4.445 6.684 4.444 10.741c-0.004 8.371-6.817 15.182-15.186 15.182-0 0 0 0 0 0h-0.007c-2.541-0.001-5.039-0.638-7.257-1.848l-8.050 2.111zM9.167 26.46l0.461 0.273c1.938 1.15 4.159 1.758 6.424 1.759h0.005c6.957 0 12.619-5.661 12.622-12.619 0.001-3.372-1.31-6.542-3.693-8.927s-5.552-3.699-8.924-3.701c-6.962 0-12.624 5.66-12.627 12.618-0.001 2.384 0.666 4.706 1.93 6.715l0.3 0.478-1.275 4.656 4.777-1.253z"></path>
<path fill="#fff" style="fill: var(--color2, #fff)" d="M12.262 9.515c-0.284-0.632-0.584-0.645-0.854-0.656-0.221-0.010-0.474-0.009-0.727-0.009s-0.664 0.095-1.012 0.475c-0.348 0.38-1.328 1.298-1.328 3.165s1.36 3.671 1.55 3.925c0.19 0.253 2.625 4.207 6.482 5.728 3.205 1.264 3.857 1.013 4.553 0.949s2.245-0.918 2.561-1.804c0.316-0.886 0.316-1.645 0.221-1.804s-0.348-0.253-0.727-0.443-2.245-1.108-2.593-1.234c-0.348-0.127-0.601-0.19-0.854 0.19s-0.98 1.234-1.201 1.487c-0.221 0.254-0.443 0.285-0.822 0.095s-1.601-0.591-3.051-1.883c-1.128-1.006-1.89-2.248-2.111-2.628s-0.004-0.567 0.167-0.774c0.307-0.373 0.822-1.044 0.948-1.297s0.063-0.475-0.031-0.665c-0.095-0.19-0.833-2.066-1.17-2.817z"></path>
</symbol>
<symbol id="icon-simko-lab__logo" viewBox="0 0 226 32">
<path fill="#d24a43" style="fill: var(--color1, #d24a43)" d="M130.248 8.64c0-1.387-0.107-2.347-0.319-2.667-0.213-0.427-0.746-0.533-1.385-0.533s-1.065 0.107-1.384 0.427c-0.32 0.32-0.532 1.28-0.532 2.773v14.080c0 1.707 0.106 2.88 0.319 3.2 0.213 0.427 0.746 0.64 1.491 0.64s1.278-0.213 1.492-0.747c0.212-0.427 0.319-1.6 0.319-3.413v-13.76zM141.75 18.453c0 2.987-0.107 5.12-0.32 6.4s-0.852 2.453-2.023 3.413c-1.065 1.067-2.556 1.813-4.473 2.453-1.917 0.533-4.047 0.853-6.604 0.853-2.342 0-4.473-0.213-6.389-0.747s-3.408-1.28-4.58-2.347-1.811-2.24-2.023-3.413c-0.213-1.28-0.32-3.413-0.32-6.507v-5.12c0-2.987 0.107-5.12 0.32-6.4s0.852-2.453 2.023-3.413c1.065-1.067 2.556-1.813 4.473-2.347s4.047-0.853 6.603-0.853c2.343 0 4.473 0.213 6.39 0.747s3.408 1.28 4.58 2.347c1.172 1.067 1.811 2.24 2.023 3.413 0.213 1.28 0.32 3.413 0.32 6.507v5.013zM113.74 0.853l-6.603 13.547 7.242 16.533h-11.928l-4.685-12.907v12.907h-11.502v-30.080h11.502v11.733l5.112-11.733h10.862zM81.578 0.853v30.080h-10.117v-20.267l-4.047 20.267h-7.135l-4.26-19.84v19.84h-10.117v-30.080h14.91c0.426 1.813 0.852 3.947 1.385 6.4l1.704 7.68 2.662-14.080h15.016zM41.322 0.96v30.080h-11.502v-30.080h11.502zM25.24 10.027h-10.756v-2.24c0-1.067-0.107-1.707-0.426-2.027s-0.745-0.427-1.385-0.427c-0.745 0-1.171 0.213-1.597 0.533-0.32 0.533-0.426 1.067-0.426 1.813 0 0.96 0.213 1.813 0.639 2.24 0.426 0.533 1.491 1.067 3.301 1.813 5.112 2.027 8.413 3.733 9.691 5.12 1.384 1.28 2.023 3.413 2.023 6.4 0 2.133-0.426 3.733-1.065 4.693-0.745 1.067-2.13 1.92-4.26 2.56s-4.579 1.067-7.455 1.067c-3.088 0-5.751-0.427-7.881-1.173-2.236-0.747-3.621-1.813-4.26-2.987-0.639-1.28-1.065-2.987-1.065-5.227v-1.92h10.756v3.627c0 1.173 0.107 1.813 0.426 2.133s0.852 0.533 1.598 0.533c0.745 0 1.384-0.213 1.704-0.64 0.426-0.427 0.532-1.067 0.532-1.813 0-1.813-0.319-2.88-1.065-3.52-0.745-0.533-2.556-1.493-5.431-2.773s-4.792-2.24-5.751-2.773c-0.958-0.533-1.704-1.387-2.343-2.453s-0.959-2.347-0.959-3.947c0-2.347 0.426-3.947 1.278-5.013s2.236-1.92 4.153-2.453c1.917-0.64 4.26-0.853 7.029-0.853 2.982 0 5.538 0.32 7.668 0.96s3.514 1.493 4.153 2.453c0.639 0.96 1.065 2.667 1.065 5.12l0.107 1.173z"></path>
<path fill="#404346" style="fill: var(--color2, #404346)" d="M157.192 0.96v24h7.029v5.973h-18.637v-29.973h11.608z"></path>
<path fill="#404346" style="fill: var(--color2, #404346)" d="M188.822 0.96l6.604 29.973h-11.821l-0.639-5.44h-4.047l-0.746 5.44h-11.928l5.858-29.973h16.72zM182.752 20.267c-0.532-3.413-1.172-7.573-1.811-12.587-1.172 5.76-1.916 9.92-2.236 12.587h4.047z"></path>
<path fill="#404346" style="fill: var(--color2, #404346)" d="M198.407 0.96h11.502c3.621 0 6.39 0.213 8.307 0.533 1.917 0.427 3.408 1.173 4.58 2.347s1.704 3.093 1.704 5.653c0 1.707-0.426 2.987-1.172 3.627-0.852 0.64-2.449 1.173-4.792 1.6 2.662 0.427 4.473 1.067 5.431 2.027s1.385 2.347 1.385 4.373v2.773c0 2.027-0.32 3.52-1.065 4.48-0.639 0.96-1.811 1.6-3.302 2.027-1.491 0.32-4.579 0.533-9.265 0.533h-13.313v-29.973zM209.909 6.080v6.72c0.532 0 0.852 0 1.172 0 1.172 0 1.811-0.213 2.13-0.533 0.32-0.427 0.427-1.493 0.427-3.2 0-0.96-0.107-1.6-0.427-2.027-0.212-0.427-0.639-0.64-0.958-0.747s-1.172-0.213-2.343-0.213zM209.909 17.387v8.427c1.597 0 2.662-0.213 3.089-0.533s0.639-1.067 0.639-2.24v-2.773c0-1.28-0.213-2.027-0.639-2.347-0.32-0.32-1.385-0.427-3.089-0.533z"></path>
</symbol>
<symbol id="icon-whatsapp__grey" viewBox="0 0 32 32">
<path fill="#fff" style="fill: var(--color1, #fff)" d="M0.744 31.319l2.154-7.867c-1.329-2.303-2.028-4.914-2.027-7.59 0.003-8.371 6.815-15.181 15.186-15.181 4.062 0.002 7.875 1.583 10.742 4.452s4.445 6.684 4.444 10.741c-0.004 8.371-6.817 15.182-15.186 15.182-0 0 0 0 0 0h-0.007c-2.541-0.001-5.039-0.638-7.257-1.848l-8.050 2.111zM9.167 26.46l0.461 0.273c1.938 1.15 4.159 1.758 6.424 1.759h0.005c6.957 0 12.619-5.661 12.622-12.619 0.001-3.372-1.31-6.542-3.693-8.928s-5.552-3.699-8.924-3.701c-6.962 0-12.624 5.66-12.627 12.618-0.001 2.384 0.666 4.706 1.93 6.715l0.3 0.477-1.275 4.656 4.777-1.252z"></path>
<path d="M1.272 30.79l2.080-7.595c-1.283-2.223-1.958-4.744-1.957-7.327 0.003-8.081 6.58-14.656 14.66-14.656 3.922 0.002 7.603 1.528 10.37 4.298s4.292 6.453 4.29 10.369c-0.004 8.081-6.58 14.656-14.66 14.656-0.001 0 0 0 0 0h-0.007c-2.453-0.001-4.864-0.617-7.005-1.784l-7.771 2.038z"></path>
<path fill="#fff" style="fill: var(--color1, #fff)" d="M12.261 9.516c-0.284-0.632-0.584-0.645-0.854-0.656-0.221-0.009-0.474-0.009-0.727-0.009s-0.664 0.095-1.012 0.475c-0.348 0.38-1.328 1.298-1.328 3.165s1.36 3.671 1.55 3.925c0.19 0.253 2.625 4.207 6.482 5.728 3.205 1.264 3.857 1.013 4.553 0.949s2.245-0.918 2.561-1.804 0.316-1.645 0.221-1.804c-0.095-0.158-0.348-0.253-0.727-0.443s-2.245-1.108-2.593-1.235c-0.348-0.127-0.601-0.19-0.854 0.19s-0.98 1.234-1.201 1.487c-0.221 0.253-0.443 0.285-0.822 0.095s-1.602-0.591-3.051-1.883c-1.128-1.006-1.89-2.248-2.111-2.628s-0.004-0.567 0.167-0.774c0.307-0.373 0.822-1.044 0.948-1.297s0.063-0.475-0.031-0.665c-0.095-0.19-0.832-2.066-1.17-2.817z"></path>
</symbol>
</defs>
</svg>
